# xmcd
#
# Track frame offsets: 
#        150
#        25604
#        40936
#        67651
#        89008
#        109505
#        129953
#        148536
#        170068
#        190285
#        207649
#        228311
#        245003
#        266996
#        291395
#        318454
#        337466
#
# Disc length: 4781 seconds
#
# Revision: 0
# Processed by: cddbd v1.5.2PL0 Copyright (c) Steve Scherf et al.
# Submitted via: ExactAudioCopy v1.3
#
DISCID=0b12ab11
DTITLE=Various Artist - Akella Presents - vol.169 - Electric Blues  C
DTITLE=D1
DYEAR=2018
DGENRE=Blues
TTITLE0=Zed Mitchell - The Train Has Gone
TTITLE1=General Blues Band - Follow Your Heart
TTITLE2=Geoff Achison - Crazy Horse
TTITLE3=Tota Blues - Blussi
TTITLE4=John Campbelljohn - Ice Cubes In Her Wine
TTITLE5=Bill Deraime - Plus la peine de frimer
TTITLE6=Kent Earl Housman - Shootout
TTITLE7=Junkyardmen - It's Gonna Be Alright
TTITLE8=Too Slim and The Taildraggers - Inside Of Me
TTITLE9=Snowy White - A Piece Of Your Love
TTITLE10=Wentus Blues Band - I Think You Need A Shrink
TTITLE11=Al Basile - Just a Heartache
TTITLE12=Reverend Rusty and The Case - Nighttime
TTITLE13=David Lumsden and Friends - Thrill Is Gone
TTITLE14=Ben Poole - Don't Cry For Me
TTITLE15=RoosterHouse Gumbo Band - Into The Night
TTITLE16=Tony Joe White - Did Somebody Make a Fool Out of You
EXTD=
EXTT0=
EXTT1=
EXTT2=
EXTT3=
EXTT4=
EXTT5=
EXTT6=
EXTT7=
EXTT8=
EXTT9=
EXTT10=
EXTT11=
EXTT12=
EXTT13=
EXTT14=
EXTT15=
EXTT16=
PLAYORDER=
